<?xml version="1.0" encoding="utf-8"?>
<!-- Generator: Adobe Illustrator 19.0.0, SVG Export Plug-In . SVG Version: 6.00 Build 0)  -->
<svg version="1.1" id="Layer_1" xmlns="http://www.w3.org/2000/svg" xmlns:xlink="http://www.w3.org/1999/xlink" x="0px" y="0px"
	 viewBox="0 0 384 289.2" style="enable-background:new 0 0 384 289.2;" xml:space="preserve">
<style type="text/css">
	.st0{display:none;fill:#FFFFFF;stroke:#000000;stroke-miterlimit:10;}
	
		.st1{clip-path:url(#XMLID_22_);fill:none;stroke:#22C3CC;stroke-width:23;stroke-linecap:round;stroke-linejoin:round;stroke-miterlimit:10;}
	.st2{fill:none;stroke:#22C3CC;stroke-width:23;stroke-linecap:round;stroke-miterlimit:10;}
</style>
<path id="XMLID_1_" class="st0" d="M315,83.1c0,81.7-66.3,148-148,148S19,164.8,19,83.1C19,38.9,38.4-0.7,69-27.8
	c4.8-4.3,13.7-7.7,25.1-10.4c50.3-11.8,150-8.1,171.3,10.9C295.9-0.3,315,39.2,315,83.1z"/>
<g id="XMLID_2_">
	<g id="XMLID_5_">
		<defs>
			<polygon id="XMLID_4_" points="384,267.4 86.4,267.4 0,267.4 0,-5 384,-5 			"/>
		</defs>
		<clipPath id="XMLID_22_">
			<use xlink:href="#XMLID_4_"  style="overflow:visible;"/>
		</clipPath>
		<circle id="XMLID_3_" class="st1" cx="192" cy="171" r="143"/>
	</g>
	<path id="XMLID_7_" class="st2" d="M92.1,273.2c-4.4-3.9-9.2-9.6-14.1-16"/>
	<path id="XMLID_8_" class="st2" d="M292,273.2c4.4-3.9,9.2-9.6,14.1-16"/>
</g>
</svg>
