<?xml version="1.0" encoding="UTF-8"?>
<svg width="89px" height="332px" viewBox="0 0 89 332" version="1.1" xmlns="http://www.w3.org/2000/svg" xmlns:xlink="http://www.w3.org/1999/xlink">
    <!-- Generator: Sketch 49.1 (51147) - http://www.bohemiancoding.com/sketch -->
    <title>Fill 5</title>
    <desc>Created with Sketch.</desc>
    <defs></defs>
    <g id="UI" stroke="none" stroke-width="1" fill="none" fill-rule="evenodd">
        <g id="9--Guidebook---Machines-&amp;-tools-Copy" transform="translate(-143.000000, -238.000000)" fill="#E4EAEF">
            <path d="M144.687256,400.080049 C144.687256,400.080049 146.370085,395.48685 146.064345,375.738707 C145.758604,355.990061 147.59355,352.316104 148.359158,348.488941 C149.124765,344.661777 150.347728,331.64922 151.113335,316.340064 C151.878942,301.031409 153.560767,301.031409 155.550341,297.357453 C157.539413,293.682994 172.839002,290.161743 174.9822,289.243505 C177.124393,288.324764 179.724445,286.335081 180.016631,284.650808 C180.308817,282.966534 180.016631,275.006295 180.016631,275.006295 C175.719191,271.025423 175.2779,264.518893 175.2779,264.518893 C173.754216,264.620863 173.602099,262.131374 173.550891,261.318623 C173.500186,260.505872 172.485066,256.847989 172.536274,255.019048 C172.58698,253.190107 174.837613,253.836591 174.837613,253.836591 C174.837613,239.430603 182.291864,238 187.499498,238 C192.707634,238 200.161885,239.430603 200.161885,253.836591 C200.161885,253.836591 202.412016,253.190107 202.463224,255.019048 C202.514934,256.847989 201.499814,260.505872 201.448607,261.318623 C201.397399,262.131374 201.244779,264.620863 199.721598,264.518893 C199.721598,264.518893 199.280809,271.025423 194.983369,275.006295 C194.983369,275.006295 194.690681,282.966534 194.983369,284.650808 C195.275555,286.335081 197.875105,288.324764 200.0178,289.243505 C202.159994,290.161743 217.460085,293.682994 219.449659,297.357453 C221.438731,301.031409 223.120556,301.031409 223.886163,316.340064 C224.65177,331.64922 225.874733,344.661777 226.64034,348.488941 C227.405947,352.316104 229.241396,355.990061 228.935153,375.738707 C228.629413,395.48685 230.312744,400.080049 230.312744,400.080049 C230.312744,400.080049 233.067423,413.85814 231.537213,417.072475 C230.006501,420.287814 228.17055,422.583912 227.252826,422.431207 C226.3346,422.278 226.793462,420.594731 226.793462,420.594731 C226.793462,420.594731 222.969443,423.057598 222.051217,422.438742 C221.13299,421.818881 220.826246,422.278 220.062145,421.206555 C219.29704,420.13511 220.674128,419.063162 220.674128,419.063162 C220.674128,419.063162 219.755902,418.756748 219.143918,417.991215 C218.531433,417.226184 223.428305,414.470466 223.428305,410.6428 C223.428305,406.816139 222.6632,402.529856 223.887167,398.090366 C225.110633,393.650374 218.378813,380.944232 217.307466,367.472053 C216.23662,354.000378 217.61421,354.15258 216.542863,349.71309 C215.471515,345.274103 210.881889,329.505828 210.881889,324.147598 L210.881889,323.535272 C210.881889,323.535272 209.657922,331.036894 207.668348,333.332991 C205.678774,335.629591 204.607426,350.325919 205.219911,352.162897 C205.832397,354.000378 217.002227,378.953544 216.848603,395.334146 C216.695482,411.714747 209.384312,442.332558 209.750297,447.69129 C210.11578,453.049018 212.106358,469.276914 212.258476,482.442176 C212.410593,495.607438 203.384965,526.531663 203.690706,540.156546 C203.996446,553.780926 209.19906,562.507201 207.668348,564.957007 C206.138138,567.406814 201.243273,568.936876 199.55944,568.936876 C199.55944,568.936876 198.334971,570.46744 196.193279,569.855616 C194.051588,569.243792 193.439102,564.037262 193.897964,558.374125 C194.357329,552.710486 194.204709,545.208361 193.133361,541.994026 C192.062014,538.778686 196.957882,534.491902 196.193279,529.439584 C195.428174,524.38827 197.112008,520.4079 194.969312,506.937228 C192.827119,493.464548 193.287989,479.839665 194.664073,473.256783 C196.039656,466.673398 192.980742,452.282982 191.756273,447.997202 C190.531804,443.709915 187.499498,412.038742 187.499498,412.038742 C187.499498,412.038742 184.467694,443.709915 183.243225,447.997202 C182.018254,452.282982 178.959842,466.673398 180.335927,473.256783 C181.712011,479.839665 182.172881,493.464548 180.029684,506.937228 C177.88749,520.4079 179.570822,524.38827 178.806219,529.439584 C178.041616,534.491902 182.937484,538.778686 181.866136,541.994026 C180.794789,545.208361 180.642169,552.710486 181.101534,558.374125 C181.560396,564.037262 180.948412,569.243792 178.806219,569.855616 C176.664527,570.46744 175.440058,568.936876 175.440058,568.936876 C173.756225,568.936876 168.86136,567.406814 167.33115,564.957007 C165.80094,562.507201 171.003052,553.780926 171.308792,540.156546 C171.614533,526.531663 162.588403,495.607438 162.741022,482.442176 C162.893642,469.276914 164.883718,453.049018 165.249201,447.69129 C165.615186,442.332558 158.304016,411.714747 158.150895,395.334146 C157.997773,378.953544 169.167101,354.000378 169.779084,352.162897 C170.39157,350.325919 169.320222,335.629591 167.33115,333.332991 C165.342078,331.036894 164.118111,323.535272 164.118111,323.535272 L164.118111,324.147598 C164.118111,329.505828 159.527983,345.274103 158.456635,349.71309 C157.385288,354.15258 158.76338,354.000378 157.69153,367.472053 C156.620685,380.944232 149.888363,393.650374 151.112331,398.090366 C152.335796,402.529856 151.571695,406.816139 151.571695,410.6428 C151.571695,414.470466 156.468065,417.226184 155.85558,417.991215 C155.243596,418.756748 154.32537,419.063162 154.32537,419.063162 C154.32537,419.063162 155.702458,420.13511 154.937855,421.206555 C154.173252,422.278 153.866508,421.818881 152.948281,422.438742 C152.030557,423.057598 148.206036,420.594731 148.206036,420.594731 C148.206036,420.594731 148.664898,422.278 147.747174,422.431207 C146.828948,422.583912 144.992495,420.287814 143.462787,417.072475 C141.932577,413.85814 144.687256,400.080049 144.687256,400.080049" id="Fill-5"></path>
        </g>
    </g>
</svg>