<svg xmlns="http://www.w3.org/2000/svg" xmlns:xlink="http://www.w3.org/1999/xlink" width="27" height="27" viewBox="0 0 27 27">
    <defs>
        <path id="a" d="M23.892 23.16l-.74.74a.37.37 0 0 1-.524-.523l.108-.109H6.091a1.361 1.361 0 0 1-1.36-1.359V5.264l-.108.108A.37.37 0 0 1 4.1 4.85l.742-.741a.36.36 0 0 1 .511 0l.741.74a.37.37 0 1 1-.524.524l-.108-.108v16.645a.618.618 0 0 0 .63.618h16.645l-.108-.109a.37.37 0 0 1 .523-.523l.741.74a.36.36 0 0 1 .082.39.37.37 0 0 1-.082.134zm-5.82-7.271a.376.376 0 0 0 .08 0 .37.37 0 0 0 .36-.292c.133-.61.264-1.26.39-1.887.46-2.3.934-4.676 1.762-5.973a.371.371 0 1 0-.625-.4c-.905 1.413-1.394 3.86-1.866 6.227-.123.625-.247 1.27-.385 1.875a.37.37 0 0 0 .284.45zm-4.73-1.102a.371.371 0 0 0-.725.163l.04.178c.62 2.752 1.208 5.353 2.945 5.353.575 0 1.082-.296 1.504-.881a.37.37 0 1 0-.6-.435c-.28.385-.576.573-.904.573-1.144 0-1.717-2.537-2.224-4.775l-.037-.176zm-5.84 2.851h.031a.37.37 0 0 0 .368-.338c.116-1.21.313-2.411.588-3.595.517-2.132 1.236-3.352 1.947-3.352.14 0 .57 0 1.038.852a.37.37 0 0 0 .65-.356c-.45-.82-1.018-1.235-1.688-1.235-1.141 0-2.04 1.322-2.67 3.928a27.686 27.686 0 0 0-.603 3.706.37.37 0 0 0 .338.39zm5.012-5.976a1.235 1.235 0 1 1 0 2.47 1.235 1.235 0 0 1 0-2.47zm-.494 1.235a.494.494 0 1 0 .988 0 .494.494 0 0 0-.988 0zm8.77-6.457a1.235 1.235 0 1 1 2.47 0 1.235 1.235 0 0 1-2.47 0zm.74 0a.494.494 0 1 0 .989 0 .494.494 0 0 0-.988 0zm-5.096 10.988a1.235 1.235 0 1 1 2.47 0 1.235 1.235 0 0 1-2.47 0zm.741 0a.494.494 0 1 0 .989 0 .494.494 0 0 0-.989 0z"/>
    </defs>
    <g fill="none" fill-rule="evenodd">
        <mask id="b" fill="#fff">
            <use xlink:href="#a"/>
        </mask>
        <use fill="#000" fill-rule="nonzero" xlink:href="#a"/>
        <g fill="#BABABA" fill-rule="nonzero" mask="url(#b)">
            <path d="M0 0h27v27H0z"/>
        </g>
    </g>
</svg>
