<svg xmlns="http://www.w3.org/2000/svg" xmlns:xlink="http://www.w3.org/1999/xlink" width="27" height="27" viewBox="0 0 27 27">
    <defs>
        <path id="a" d="M25.273 9.988c-.741-1.25-1.654-2.411-2.543-3.558-.668-.861-1.172-1.587-2.42-1.276-1.321.329-2.285.914-1.57 2.392.57 1.18 1.442.495 2.356.122.263-.108.088-.204.244.216.145.393.257.8.374 1.203.077.266.151.533.223.8a3.723 3.723 0 0 0-1.11-.247c-.8-.06-1.052.813-1.889.533-.757-.254-1.632-.16-2.368.104-.766.275-1.179.514-1.721-.194.47-.613.712-1.476.742-2.155.062-1.398-.87-2.814-2.315-2.923-1.492-.112-2.227 1.622-2.309 2.84a.337.337 0 0 0-.006.083.353.353 0 0 0 .006.08c.051.827.333 1.644.876 2.19-.498.565-.905.338-1.627.079-.789-.283-1.553-.274-2.368-.105-.833.174-1.096-.59-1.888-.532a3.73 3.73 0 0 0-1.106.246c.049-.18.096-.362.146-.542.095-.341.196-.68.3-1.019.047-.148.096-.295.147-.442.07-.203.134-.246.122-.262.664.176 1.86 1.205 2.352.186.681-1.411.336-2.004-1-2.543-1.297-.523-1.99.058-2.72.982C3.294 7.392 2.417 8.57 1.63 9.8c-.415.648-.852 1.41-.506 2.176.18.398.639.679.976.928.86.633 1.82 1.325 2.821 1.704.59.223 1.345.432 2.032.355 1.446 1.815 2.595 4.166 2.57 6.511-.005.421.648.42.652 0 .027-2.415-1.092-4.796-2.549-6.704.058-.028.114-.06.169-.096.35-.23.024-.795-.33-.564a1.243 1.243 0 0 1-.336.147.277.277 0 0 0-.19.046c-.5.079-1.064-.063-1.509-.197-.898-.272-1.696-.891-2.47-1.402-.447-.295-.976-.596-1.272-1.057-.33-.515.518-1.54.77-1.925.64-.974 1.346-1.908 2.06-2.829.201-.26.408-.518.617-.772.554-.67 1.542-.29 2.208.03.523.251.226 1.651-.494 1.327-.231-.104-.459-.214-.69-.317-.22-.098-.544-.275-.799-.211-.866.218-1.142 2.749-1.332 3.488-.068.263.232.536.48.369.51-.346 1.218-.69 1.857-.37.234.118.393.4.655.482.253.079.33.067.594.02.935-.163 1.863-.514 2.723.168.752.597 1.5.114 2.026-.518.265.142.567.236.912.263a1.64 1.64 0 0 0 1.105-.313c.529.655 1.296 1.18 2.068.568.657-.522 1.55-.463 2.315-.304.216.045.558.254.808.176.206-.064.35-.127.518-.272.679-.586 1.512-.358 2.188.1.247.167.547-.107.48-.369-.191-.739-.467-3.27-1.333-3.488-.9-.227-1.734 1.465-2.21-.04-.345-1.084 1.834-1.48 2.348-.892.246.282.474.58.705.875.665.85 1.303 1.722 1.914 2.612.327.478 1.207 1.497.915 2.142-.419.926-2.296 1.761-3.126 2.201-.7.372-1.916.747-2.663.26-.354-.23-.681.336-.33.564.042.027.085.051.128.074-.518.717-.89 1.539-1.346 2.292a.327.327 0 0 0-.037.09c-.724 1.323-1.142 2.833-1.12 4.346.006.42.659.421.652 0-.021-1.486.408-2.963 1.153-4.241.01-.016.015-.032.022-.047.431-.747.796-1.565 1.338-2.236.59.078 1.232-.056 1.76-.215.96-.29 1.802-.923 2.627-1.468.477-.314 1.112-.676 1.43-1.172.452-.705.07-1.462-.312-2.106zm-12.707.03a.359.359 0 0 0-.17-.127c-.52-.467-.755-1.362-.782-1.964.045-1.008.505-2.182 1.662-2.27 1.15-.086 1.624 1.399 1.662 2.27.045 1.006-.57 2.188-1.662 2.27-.275.021-.51-.05-.71-.178zm2.77 5.85c1.601-.24 2.59-1.291 3.021-2.799.116-.406-.514-.577-.63-.173-.276.966-.76 1.704-1.71 2.101-.454.19-1.696.602-2.075.094-.336-.448-.32-1.193-.34-1.726-.008-.218-.189-.322-.358-.313-.17-.01-.351.095-.36.313-.017.493-.066.971-.206 1.446-.26.873-1.62.391-2.207.186-.956-.333-1.446-1.174-1.711-2.101-.116-.404-.746-.233-.63.173.451 1.577 1.418 2.455 3.022 2.8.582.124 1.443.24 1.851-.306.1-.132.176-.277.24-.426.065.15.142.294.241.426.423.564 1.253.395 1.851.306zm-2.502 1.19a2.242 2.242 0 0 1-.08.562c-.095.318-.62.125-.833.05-.366-.127-.552-.453-.653-.808-.058-.201-.373-.116-.315.087.181.635.574.994 1.22 1.132.249.054.599.094.771-.136.186-.25.206-.588.216-.888.008-.21-.318-.21-.326 0zm0 1.32a2.24 2.24 0 0 1-.08.563c-.095.317-.621.124-.833.05-.366-.128-.552-.454-.653-.808-.058-.202-.373-.117-.315.087.181.634.574.993 1.22 1.131.249.054.599.094.771-.136.186-.249.206-.588.216-.888.008-.21-.318-.21-.326 0zm0 1.403a2.243 2.243 0 0 1-.08.563c-.095.317-.621.124-.833.05-.366-.127-.552-.454-.653-.809-.058-.202-.373-.116-.315.087.181.635.573.994 1.22 1.133.249.053.599.094.771-.137.186-.249.206-.588.216-.887.008-.21-.318-.21-.326 0zm2.591-2.877c-.106.37-.289.656-.653.809-.16.067-.647.233-.783.052-.13-.173-.122-.462-.13-.667-.007-.21-.334-.21-.326 0 .01.3.03.64.216.888.18.239.516.175.771.137.646-.097 1.047-.525 1.22-1.132.058-.204-.257-.29-.315-.087zm0 1.32c-.106.37-.289.656-.653.809-.16.067-.648.233-.783.053-.13-.173-.122-.462-.13-.667-.007-.21-.334-.21-.326 0 .01.3.03.638.216.887.18.24.516.175.771.137.646-.097 1.047-.525 1.22-1.132.058-.203-.257-.29-.315-.087zm0 1.403c-.106.37-.289.657-.653.81-.16.066-.648.233-.783.052-.13-.173-.122-.462-.13-.667-.007-.21-.334-.21-.326 0 .01.3.03.639.216.887.18.24.516.175.771.137.646-.096 1.047-.525 1.22-1.132.058-.203-.257-.289-.315-.087z"/>
    </defs>
    <g fill="none" fill-rule="evenodd">
        <mask id="b" fill="#fff">
            <use xlink:href="#a"/>
        </mask>
        <use fill="#000" fill-rule="nonzero" xlink:href="#a"/>
        <g fill="#BABABA" fill-rule="nonzero" mask="url(#b)">
            <path d="M0 0h27v27H0z"/>
        </g>
    </g>
</svg>
