<svg xmlns="http://www.w3.org/2000/svg" xmlns:xlink="http://www.w3.org/1999/xlink" width="27" height="27" viewBox="0 0 27 27">
    <defs>
        <path id="a" d="M8.668 8.608c.803 0 1.456.653 1.456 1.456v6.278c0 .802-.653 1.456-1.456 1.456-.763 0-1.4-.598-1.45-1.36l-.005-.085v-6.3l.005-.085c.05-.762.687-1.36 1.45-1.36zm0-.608a2.063 2.063 0 0 0-2.057 1.929l-.007-.004v6.556l.007-.004a2.063 2.063 0 0 0 4.121-.135v-6.278C10.732 8.924 9.808 8 8.668 8zm-3.016 2.39v5.627a.769.769 0 0 1-.503-.721v-1.339h-.54v-1.508h.54v-1.338c0-.331.21-.614.503-.722zm.264-.656c-.76 0-1.376.617-1.376 1.376v.731a.54.54 0 0 0-.54.54v1.643c0 .299.242.54.54.54v.732c0 .76.616 1.375 1.376 1.375.12 0 .234-.017.344-.047V9.781a1.324 1.324 0 0 0-.344-.047zm10.4 2.701v1.536h-4.632v-1.536h4.632zm.608-.608h-5.848v2.752h5.848v-2.752zm2.408-3.219c.764 0 1.4.598 1.45 1.36l.006.084v6.302l-.006.084a1.457 1.457 0 0 1-1.45 1.36 1.457 1.457 0 0 1-1.456-1.456v-6.278c0-.803.653-1.456 1.456-1.456zm0-.608c-1.14 0-2.064.924-2.064 2.064v6.278a2.063 2.063 0 1 0 4.121.135l.007.004V9.925l-.007.004A2.062 2.062 0 0 0 19.332 8zm3.016 2.39c.294.107.504.39.504.72v1.339h.54v1.508h-.54v1.338c0 .331-.21.614-.504.722v-5.628zm-.264-.656c-.12 0-.234.018-.344.047v6.843c.11.03.224.048.344.048.76 0 1.376-.617 1.376-1.376v-.731a.54.54 0 0 0 .54-.54v-1.643a.54.54 0 0 0-.54-.54v-.732c0-.76-.616-1.376-1.376-1.376z"/>
    </defs>
    <g fill="none" fill-rule="evenodd">
        <mask id="b" fill="#fff">
            <use xlink:href="#a"/>
        </mask>
        <use fill="#000" fill-rule="nonzero" stroke="#FFF" stroke-width=".2" xlink:href="#a"/>
        <g fill="#BABABA" fill-rule="nonzero" mask="url(#b)">
            <path d="M0 0h27v27H0z"/>
        </g>
    </g>
</svg>
