<?xml version="1.0" encoding="UTF-8"?>
<svg width="27px" height="27px" viewBox="0 0 27 27" version="1.1" xmlns="http://www.w3.org/2000/svg" xmlns:xlink="http://www.w3.org/1999/xlink">
    <!-- Generator: Sketch 49.1 (51147) - http://www.bohemiancoding.com/sketch -->
    <title>Icons / Energy</title>
    <desc>Created with Sketch.</desc>
    <defs>
        <path d="M10.5957792,4.00000026 C10.414036,4.01563662 10.248619,4.15156163 10.1979744,4.32684573 L9.74334057,5.91842533 C9.67807829,6.14913443 9.82867557,6.41844126 10.0593754,6.48357081 C10.2900747,6.54870263 10.5592231,6.39790262 10.624194,6.16710943 L10.9864804,4.90947757 L17.2234897,4.90947757 L14.3109912,11.7802755 C14.1942173,12.0556437 14.4310598,12.4129937 14.7301067,12.4126437 L18.2464161,12.4126437 L9.84279171,21.7347668 L11.5263581,16.1784257 C11.6051518,15.9094257 11.3732861,15.597653 11.0930349,15.5957893 L8.05267051,15.5957893 L10.1695599,7.9860595 C10.2348222,7.75534812 10.0842249,7.48604357 9.85352534,7.42091175 C9.62282579,7.3557822 9.3536776,7.50657993 9.28870669,7.7373754 L7.01553683,15.922653 C6.93607115,16.1939257 7.17334616,16.5078348 7.45596367,16.5052894 L10.4821208,16.5052894 L8.38654234,23.4186987 C8.32812347,23.6148578 8.42168825,23.8454487 8.60025007,23.9454033 C8.7788119,24.0453351 9.02424759,24.0045169 9.16084077,23.8521305 L19.6174216,12.2563278 C19.7308648,12.1258096 19.7598032,11.9278892 19.6884787,11.7703437 C19.6171539,11.6128005 19.44935,11.5039892 19.2764461,11.5031687 L15.4191612,11.5031687 L18.33166,4.63237074 C18.4484357,4.35700255 18.2115925,3.99964799 17.9125443,4.00000026 C15.4746987,4.00000026 13.0305464,4.00000026 10.5957792,4.00000026 Z" id="path-1"></path>
    </defs>
    <g id="Icons-/-Energy" stroke="none" stroke-width="1" fill="none" fill-rule="evenodd">
        <mask id="mask-2" fill="white">
            <use xlink:href="#path-1"></use>
        </mask>
        <use id="Shape" fill="#000000" fill-rule="nonzero" xlink:href="#path-1"></use>
        <g id="Colors-/-Grey" mask="url(#mask-2)" fill="#BABABA" fill-rule="nonzero">
            <rect id="Rectangle-3" x="0" y="0" width="27" height="27"></rect>
        </g>
    </g>
</svg>