<svg xmlns="http://www.w3.org/2000/svg" xmlns:xlink="http://www.w3.org/1999/xlink" width="27" height="27" viewBox="0 0 27 27">
    <defs>
        <path id="a" d="M14 19.043a.438.438 0 0 1-.308-.126c-.35-.353-2.449-.743-3.605-.743-1.38 0-3.096.232-3.605.743a.436.436 0 0 1-.743-.308V7.304c0-.115.046-.226.127-.307C6.791 6.07 9.33 6 10.087 6c.888 0 3.53.307 4.22.997.082.081.128.192.128.307V18.61a.435.435 0 0 1-.435.434zm-3.913-1.739c.683 0 2.406.182 3.478.58V7.521c-.577-.324-2.42-.651-3.478-.651-1.28 0-2.852.2-3.478.636v10.327c1.148-.483 2.877-.529 3.478-.529zm11.74 1.74a.438.438 0 0 1-.309-.127c-.35-.353-2.448-.743-3.605-.743-1.38 0-3.096.232-3.605.743a.436.436 0 0 1-.743-.308V7.304c0-.115.046-.226.127-.307C14.617 6.07 17.157 6 17.913 6c.888 0 3.53.307 4.22.997.082.081.128.192.128.307V18.61a.435.435 0 0 1-.435.434zm-3.914-1.74c.684 0 2.406.182 3.478.58V7.521c-.577-.324-2.42-.651-3.478-.651-1.28 0-2.852.2-3.478.636v10.327c1.148-.483 2.877-.529 3.478-.529zm-5.652-6.521a.426.426 0 0 1-.224-.063c-.003-.002-.661-.372-1.95-.372-1.16 0-1.976.387-1.984.391a.435.435 0 0 1-.381-.782c.04-.02.994-.479 2.365-.479 1.552 0 2.363.477 2.397.497a.435.435 0 0 1-.223.808zm0 2.608a.438.438 0 0 1-.224-.061c-.003-.003-.661-.373-1.95-.373-1.16 0-1.976.386-1.984.39a.435.435 0 0 1-.381-.78c.04-.02.994-.48 2.365-.48 1.552 0 2.363.476 2.397.496a.435.435 0 0 1-.223.808zm0 2.609a.438.438 0 0 1-.224-.062c-.003-.002-.661-.373-1.95-.373-1.16 0-1.976.387-1.984.392a.435.435 0 0 1-.381-.781c.04-.021.994-.48 2.365-.48 1.552 0 2.363.476 2.397.496a.435.435 0 0 1-.223.808zm11.304 4.783l-.048-.003-7.479-.831c-.3.497-1.078.834-2.038.834-.96 0-1.737-.337-2.038-.833l-7.48.83a.43.43 0 0 1-.338-.108.439.439 0 0 1-.144-.324V8.174c0-.2.136-.373.33-.422l1.739-.435a.434.434 0 1 1 .21.843l-1.41.353v11.349l7.344-.816a.434.434 0 0 1 .483.432c0 .109.462.435 1.304.435.842 0 1.304-.326 1.304-.435a.436.436 0 0 1 .484-.433l7.343.816V8.513l-1.41-.353a.434.434 0 1 1 .211-.843l1.74.434c.192.05.328.223.328.423v12.174a.436.436 0 0 1-.435.435zm-11.304-.87a.435.435 0 0 1-.435-.435v-1.304a.435.435 0 0 1 .87 0v1.304c0 .24-.195.435-.435.435zm3.478 0a.435.435 0 0 1-.435-.435v-1.304a.435.435 0 0 1 .87 0v1.304c0 .24-.195.435-.435.435zm3.478-4.348a.438.438 0 0 1-.307-.127l-1.432-1.432-1.431 1.431a.434.434 0 1 1-.743-.307V6.87a.434.434 0 1 1 .87 0v7.21l.996-.996c.17-.17.446-.17.615 0l.997.997V6.87a.436.436 0 0 1 .87 0v8.26a.435.435 0 0 1-.435.435z"/>
    </defs>
    <g fill="none" fill-rule="evenodd">
        <mask id="b" fill="#fff">
            <use xlink:href="#a"/>
        </mask>
        <use fill="#000" fill-rule="nonzero" xlink:href="#a"/>
        <g fill="#54D0DD" mask="url(#b)">
            <path d="M-5-3h36v32H-5z"/>
        </g>
    </g>
</svg>
