<svg xmlns="http://www.w3.org/2000/svg" xmlns:xlink="http://www.w3.org/1999/xlink" width="27" height="27" viewBox="0 0 27 27">
    <defs>
        <path id="a" d="M20.087 24H7.913A3.918 3.918 0 0 1 4 20.087V7.913A3.918 3.918 0 0 1 7.913 4h12.174A3.918 3.918 0 0 1 24 7.913v12.174A3.918 3.918 0 0 1 20.087 24zM7.913 4.87A3.047 3.047 0 0 0 4.87 7.913v12.174a3.047 3.047 0 0 0 3.043 3.043h12.174a3.047 3.047 0 0 0 3.043-3.043V7.913a3.047 3.047 0 0 0-3.043-3.043H7.913zm13.044 8.695H7.043a.435.435 0 0 1-.434-.435c0-4.075 3.315-7.39 7.391-7.39 4.076 0 7.391 3.315 7.391 7.39 0 .24-.194.435-.434.435zm-13.464-.87h13.015A6.53 6.53 0 0 0 14 6.61a6.531 6.531 0 0 0-6.508 6.087zM14 8.784a.435.435 0 0 1-.435-.435V6.174a.435.435 0 0 1 .87 0v2.174c0 .24-.195.435-.435.435zm3.478 1.304a.435.435 0 0 1-.308-.742l1.441-1.44a.435.435 0 0 1 .615.614l-1.44 1.441a.433.433 0 0 1-.308.127zm-6.956 0a.437.437 0 0 1-.308-.127l-1.44-1.44a.435.435 0 0 1 .615-.616l1.44 1.441a.435.435 0 0 1-.307.742zM14 13.565a.435.435 0 0 1-.435-.435v-1.739a.435.435 0 0 1 .87 0v1.74c0 .24-.195.434-.435.434zm-1.74-4.348a.435.435 0 0 1-.389-.24l-.87-1.739a.435.435 0 0 1 .779-.388l.87 1.739a.435.435 0 0 1-.39.628zm3.48 0a.436.436 0 0 1-.389-.63l.869-1.738a.436.436 0 0 1 .778.388l-.87 1.74a.436.436 0 0 1-.389.24zm-6.088 2.61a.432.432 0 0 1-.194-.047l-1.739-.87a.434.434 0 1 1 .389-.777l1.739.87a.436.436 0 0 1-.195.823zm8.696 0a.435.435 0 0 1-.195-.824l1.74-.87a.436.436 0 0 1 .388.778l-1.74.87a.437.437 0 0 1-.193.045z"/>
    </defs>
    <g fill="none" fill-rule="evenodd">
        <mask id="b" fill="#fff">
            <use xlink:href="#a"/>
        </mask>
        <use fill="#000" fill-rule="nonzero" xlink:href="#a"/>
        <g fill="#BABABA" fill-rule="nonzero" mask="url(#b)">
            <path d="M0 0h27v27H0z"/>
        </g>
    </g>
</svg>
