<svg xmlns="http://www.w3.org/2000/svg" xmlns:xlink="http://www.w3.org/1999/xlink" width="27" height="27" viewBox="0 0 27 27">
    <defs>
        <path id="a" d="M24 11.111c0-.982-.796-1.778-1.778-1.778h-.502A1.778 1.778 0 0 0 20 8h-.111c-.982 0-1.778.796-1.778 1.778v1.195H9.89V9.778C9.889 8.796 9.093 8 8.11 8H8c-.81 0-1.517.549-1.72 1.333h-.502C4.796 9.333 4 10.13 4 11.111v4.056c0 .982.796 1.777 1.778 1.777h.502c.203.785.91 1.333 1.72 1.334h.111c.982 0 1.778-.796 1.778-1.778v-1.196h8.222v1.194c0 .982.796 1.778 1.778 1.778H20c.81-.001 1.517-.55 1.72-1.334h.502c.982 0 1.778-.796 1.778-1.778v-4.053zM4.889 15.167V11.11c0-.49.398-.889.889-.889h.444v5.834h-.444a.889.889 0 0 1-.89-.89zM9 16.5c0 .49-.398.889-.889.889H8a.889.889 0 0 1-.889-.889V9.778c0-.491.398-.89.889-.89h.111c.491 0 .889.399.889.89V16.5zm.889-2.082V11.86h8.222v2.556l-8.222.002zm11 2.082c0 .49-.398.889-.889.889h-.111A.889.889 0 0 1 19 16.5V9.778c0-.491.398-.89.889-.89H20c.49 0 .889.399.889.89V16.5zm2.222-1.333c0 .49-.398.889-.889.889h-.444v-5.834h.444c.491 0 .89.398.89.89v4.055z"/>
    </defs>
    <g fill="none" fill-rule="evenodd">
        <mask id="b" fill="#fff">
            <use xlink:href="#a"/>
        </mask>
        <use fill="#000" fill-rule="nonzero" xlink:href="#a"/>
        <g fill="#BABABA" fill-rule="nonzero" mask="url(#b)">
            <path d="M0 0h27v27H0z"/>
        </g>
    </g>
</svg>
